# xmcd CD database file
#
# Track frame offsets:
#	150
#	22172
#	37390
#	57612
#	94867
#	108327
#	132785
#	153765
#
# Disc length: 2379 seconds
#
# Revision: 0
# Processed by: cddbd v1.5PL3 Copyright (c) Steve Scherf et al.
# Submitted via: CDex 1.50
#
DISCID=6c094908
DTITLE=Larry Coryell with J.Scofield J.Beck - Tributaries
DYEAR=1900
DGENRE=Jazz
TTITLE0=The File
TTITLE1=Mother's Day
TTITLE2=Little B's Poem
TTITLE3=Zimabwe
TTITLE4=Solo on Wedenesday
TTITLE5=Thurman Munson
TTITLE6=Eqyuinox
TTITLE7=Alster Fields
EXTD=
EXTT0=
EXTT1=
EXTT2=
EXTT3=
EXTT4=
EXTT5=
EXTT6=
EXTT7=
PLAYORDER=
